<svg width="40" height="40" viewBox="0 0 40 40" fill="none" xmlns="http://www.w3.org/2000/svg">
<g filter="url(#filter0_d)">
<path fill-rule="evenodd" clip-rule="evenodd" d="M20 34.5C23.0656 34.5 26.0624 33.5909 28.6113 31.8878C31.1603 30.1846 33.147 27.7638 34.3201 24.9316C35.4933 22.0993 35.8002 18.9828 35.2022 15.9761C34.6041 12.9694 33.1279 10.2076 30.9602 8.03984C28.7924 5.87213 26.0306 4.3959 23.0239 3.79783C20.0172 3.19976 16.9007 3.50671 14.0684 4.67987C11.2362 5.85302 8.81538 7.8397 7.11222 10.3887C5.40906 12.9376 4.5 15.9344 4.5 19C4.5 23.1109 6.13303 27.0533 9.03984 29.9602C11.9467 32.867 15.8891 34.5 20 34.5Z" fill="white"/>
</g>
<path fill-rule="evenodd" clip-rule="evenodd" d="M22.0361 23.1827L19.994 21.1406L17.9059 23.2286C17.7661 23.3758 17.5983 23.4936 17.4124 23.5751C17.2264 23.6565 17.0261 23.7001 16.8231 23.7031C16.6201 23.7061 16.4186 23.6686 16.2303 23.5927C16.042 23.5168 15.8708 23.4041 15.7266 23.2612C15.585 23.1175 15.4737 22.9468 15.3993 22.7593C15.3249 22.5718 15.289 22.3712 15.2936 22.1695C15.2982 21.9678 15.3433 21.7691 15.4262 21.5852C15.5091 21.4013 15.6281 21.2359 15.7761 21.0988L17.8642 19.0108L15.8136 16.9601C15.6603 16.8261 15.5359 16.6622 15.448 16.4784C15.3601 16.2947 15.3105 16.095 15.3023 15.8915C15.2941 15.6879 15.3274 15.4849 15.4003 15.2947C15.4731 15.1045 15.5839 14.9311 15.7259 14.7851C15.8735 14.6388 16.0487 14.5234 16.2414 14.4456C16.4341 14.3679 16.6403 14.3294 16.8481 14.3324C17.0558 14.3353 17.2609 14.3797 17.4513 14.4629C17.6417 14.5461 17.8135 14.6665 17.9568 14.8169L20.0075 16.8675L22.0991 14.7759C22.2361 14.6279 22.4015 14.5089 22.5854 14.426C22.7694 14.3431 22.9681 14.298 23.1698 14.2934C23.3715 14.2887 23.572 14.3247 23.7595 14.3991C23.9471 14.4735 24.1177 14.5848 24.2614 14.7264C24.4043 14.8706 24.5171 15.0418 24.5929 15.2301C24.6688 15.4184 24.7063 15.6199 24.7033 15.8229C24.7003 16.0259 24.6568 16.2262 24.5753 16.4121C24.4938 16.5981 24.3761 16.7659 24.2289 16.9057L22.1373 18.9973L24.1794 21.0394C24.3298 21.1827 24.4501 21.3545 24.5333 21.5448C24.6165 21.7351 24.6609 21.9401 24.6639 22.1477C24.667 22.3554 24.6285 22.5616 24.5509 22.7542C24.4733 22.9469 24.3581 23.1221 24.2119 23.2697C24.0659 23.4117 23.8925 23.5225 23.7023 23.5953C23.5121 23.6682 23.3091 23.7015 23.1055 23.6933C22.902 23.6851 22.7023 23.6355 22.5186 23.5476C22.3348 23.4597 22.1709 23.3353 22.0369 23.182L22.0361 23.1827Z" fill="white"/>
<path d="M14.518 22.549V25.079H17.048L24.371 17.69L21.841 15.16L14.518 22.549ZM26.301 15.759C26.3642 15.6989 26.4145 15.6267 26.4489 15.5466C26.4832 15.4664 26.501 15.3802 26.501 15.293C26.501 15.2058 26.4832 15.1196 26.4489 15.0395C26.4145 14.9594 26.3642 14.8871 26.301 14.827L24.77 13.296C24.7099 13.2328 24.6376 13.1825 24.5575 13.1482C24.4774 13.1138 24.3912 13.0961 24.304 13.0961C24.2168 13.0961 24.1306 13.1138 24.0505 13.1482C23.9704 13.1825 23.8981 13.2328 23.838 13.296L22.638 14.496L25.168 17.026L26.3 15.761L26.301 15.759Z" fill="#009F88"/>
<defs>
<filter id="filter0_d" x="1.5" y="1.49999" width="37" height="37" filterUnits="userSpaceOnUse" color-interpolation-filters="sRGB">
<feFlood flood-opacity="0" result="BackgroundImageFix"/>
<feColorMatrix in="SourceAlpha" type="matrix" values="0 0 0 0 0 0 0 0 0 0 0 0 0 0 0 0 0 0 127 0"/>
<feOffset dy="1"/>
<feGaussianBlur stdDeviation="1.5"/>
<feColorMatrix type="matrix" values="0 0 0 0 0 0 0 0 0 0 0 0 0 0 0 0 0 0 0.176 0"/>
<feBlend mode="normal" in2="BackgroundImageFix" result="effect1_dropShadow"/>
<feBlend mode="normal" in="SourceGraphic" in2="effect1_dropShadow" result="shape"/>
</filter>
</defs>
</svg>
